<svg width="60" height="48" viewBox="0 0 60 48" fill="none" xmlns="http://www.w3.org/2000/svg">
<rect x="8" width="48" height="48" rx="8" fill="url(#paint0_linear_160_10328)"/>
<g filter="url(#filter0_dd_160_10328)">
<path d="M21.65 33.842C20.978 32.946 20.11 31.7 19.046 30.104C11.682 29.376 8 27.836 8 25.484C8 24.952 8.266 24.518 8.798 24.182C9.358 23.846 10.198 23.678 11.318 23.678C14.118 23.678 16.904 25.456 19.676 29.012C22.476 29.292 25.654 29.432 29.21 29.432H29.672C33.256 27.276 36.588 25.106 39.668 22.922C40.928 20.626 42.02 18.736 42.944 17.252C43.868 15.74 44.988 14.172 46.304 12.548C48.908 9.244 51.652 7.592 54.536 7.592C55.292 7.592 55.67 7.928 55.67 8.6C55.67 10.224 54.326 12.352 51.638 14.984C48.95 17.616 45.38 20.444 40.928 23.468C39.584 26.044 38.576 27.92 37.904 29.096C41.824 28.788 44.652 28.312 46.388 27.668H46.514C46.626 27.668 46.682 27.752 46.682 27.92C46.682 28.06 46.584 28.27 46.388 28.55C44.288 29.194 41.264 29.698 37.316 30.062C35.804 32.666 34.334 34.696 32.906 36.152C31.506 37.58 30.092 38.294 28.664 38.294C26.368 38.294 24.198 37.02 22.154 34.472C18.15 36.488 14.608 38.028 11.528 39.092C11.108 39.232 10.618 39.302 10.058 39.302C9.526 39.302 9.26 39.092 9.26 38.672C9.26 38.448 9.372 38.238 9.596 38.042C9.82 37.874 10.114 37.79 10.478 37.79C12.718 37.79 16.442 36.474 21.65 33.842ZM29.672 30.482C27.544 31.686 25.444 32.82 23.372 33.884C25.248 36.208 26.956 37.37 28.496 37.37C29.644 37.37 30.778 36.754 31.898 35.522C33.046 34.29 34.306 32.512 35.678 30.188C33.97 30.328 31.968 30.426 29.672 30.482ZM53.36 8.6C51.428 8.6 49.482 9.888 47.522 12.464C45.898 14.648 44.12 17.532 42.188 21.116C45.716 18.512 48.544 16.146 50.672 14.018C52.8 11.862 53.864 10.196 53.864 9.02C53.864 8.74 53.696 8.6 53.36 8.6ZM10.016 25.316C10.016 26.912 12.718 28.074 18.122 28.802C15.938 25.89 13.74 24.434 11.528 24.434C10.52 24.434 10.016 24.728 10.016 25.316ZM22.868 33.254C24.604 32.33 26.27 31.406 27.866 30.482H27.698C25.262 30.482 22.91 30.398 20.642 30.23C21.706 31.714 22.448 32.722 22.868 33.254ZM38.534 25.064C37.022 26.072 34.67 27.528 31.478 29.432C33.634 29.376 35.216 29.306 36.224 29.222C36.756 28.298 37.526 26.912 38.534 25.064Z" fill="black"/>
</g>
<defs>
<filter id="filter0_dd_160_10328" x="0" y="3.59375" width="59.6719" height="43.707" filterUnits="userSpaceOnUse" color-interpolation-filters="sRGB">
<feFlood flood-opacity="0" result="BackgroundImageFix"/>
<feColorMatrix in="SourceAlpha" type="matrix" values="0 0 0 0 0 0 0 0 0 0 0 0 0 0 0 0 0 0 127 0" result="hardAlpha"/>
<feOffset dx="-4"/>
<feGaussianBlur stdDeviation="2"/>
<feComposite in2="hardAlpha" operator="out"/>
<feColorMatrix type="matrix" values="0 0 0 0 0 0 0 0 0 0 0 0 0 0 0 0 0 0 0.58 0"/>
<feBlend mode="normal" in2="BackgroundImageFix" result="effect1_dropShadow_160_10328"/>
<feColorMatrix in="SourceAlpha" type="matrix" values="0 0 0 0 0 0 0 0 0 0 0 0 0 0 0 0 0 0 127 0" result="hardAlpha"/>
<feOffset dy="4"/>
<feGaussianBlur stdDeviation="2"/>
<feComposite in2="hardAlpha" operator="out"/>
<feColorMatrix type="matrix" values="0 0 0 0 0 0 0 0 0 0 0 0 0 0 0 0 0 0 0.25 0"/>
<feBlend mode="normal" in2="effect1_dropShadow_160_10328" result="effect2_dropShadow_160_10328"/>
<feBlend mode="normal" in="SourceGraphic" in2="effect2_dropShadow_160_10328" result="shape"/>
</filter>
<linearGradient id="paint0_linear_160_10328" x1="51.5" y1="1.5" x2="12" y2="46.5" gradientUnits="userSpaceOnUse">
<stop stop-color="#EFEFEF"/>
<stop offset="0.369348" stop-color="white"/>
<stop offset="1" stop-color="white"/>
</linearGradient>
</defs>
</svg>
