<svg width="58" height="58" viewBox="0 0 58 58" fill="none" xmlns="http://www.w3.org/2000/svg">
<rect width="58" height="58" rx="8" fill="url(#paint0_linear_160_10328)"/>
<path d="M18.65 38.842C17.978 37.946 17.11 36.7 16.046 35.104C8.682 34.376 5 32.836 5 30.484C5 29.952 5.266 29.518 5.798 29.182C6.358 28.846 7.198 28.678 8.318 28.678C11.118 28.678 13.904 30.456 16.676 34.012C19.476 34.292 22.654 34.432 26.21 34.432H26.672C30.256 32.276 33.588 30.106 36.668 27.922C37.928 25.626 39.02 23.736 39.944 22.252C40.868 20.74 41.988 19.172 43.304 17.548C45.908 14.244 48.652 12.592 51.536 12.592C52.292 12.592 52.67 12.928 52.67 13.6C52.67 15.224 51.326 17.352 48.638 19.984C45.95 22.616 42.38 25.444 37.928 28.468C36.584 31.044 35.576 32.92 34.904 34.096C38.824 33.788 41.652 33.312 43.388 32.668H43.514C43.626 32.668 43.682 32.752 43.682 32.92C43.682 33.06 43.584 33.27 43.388 33.55C41.288 34.194 38.264 34.698 34.316 35.062C32.804 37.666 31.334 39.696 29.906 41.152C28.506 42.58 27.092 43.294 25.664 43.294C23.368 43.294 21.198 42.02 19.154 39.472C15.15 41.488 11.608 43.028 8.528 44.092C8.108 44.232 7.618 44.302 7.058 44.302C6.526 44.302 6.26 44.092 6.26 43.672C6.26 43.448 6.372 43.238 6.596 43.042C6.82 42.874 7.114 42.79 7.478 42.79C9.718 42.79 13.442 41.474 18.65 38.842ZM26.672 35.482C24.544 36.686 22.444 37.82 20.372 38.884C22.248 41.208 23.956 42.37 25.496 42.37C26.644 42.37 27.778 41.754 28.898 40.522C30.046 39.29 31.306 37.512 32.678 35.188C30.97 35.328 28.968 35.426 26.672 35.482ZM50.36 13.6C48.428 13.6 46.482 14.888 44.522 17.464C42.898 19.648 41.12 22.532 39.188 26.116C42.716 23.512 45.544 21.146 47.672 19.018C49.8 16.862 50.864 15.196 50.864 14.02C50.864 13.74 50.696 13.6 50.36 13.6ZM7.016 30.316C7.016 31.912 9.718 33.074 15.122 33.802C12.938 30.89 10.74 29.434 8.528 29.434C7.52 29.434 7.016 29.728 7.016 30.316ZM19.868 38.254C21.604 37.33 23.27 36.406 24.866 35.482H24.698C22.262 35.482 19.91 35.398 17.642 35.23C18.706 36.714 19.448 37.722 19.868 38.254ZM35.534 30.064C34.022 31.072 31.67 32.528 28.478 34.432C30.634 34.376 32.216 34.306 33.224 34.222C33.756 33.298 34.526 31.912 35.534 30.064Z" fill="black"/>
<defs>
<linearGradient id="paint0_linear_160_10328" x1="52.5625" y1="1.8125" x2="4.83334" y2="56.1875" gradientUnits="userSpaceOnUse">
<stop stop-color="#EFEFEF"/>
<stop offset="0.369348" stop-color="white"/>
<stop offset="1" stop-color="white"/>
</linearGradient>
</defs>
</svg>
